<?xml version="1.0" encoding="UTF-8"?>
<svg width="21px" height="15px" viewBox="0 0 21 15" version="1.1" xmlns="http://www.w3.org/2000/svg" xmlns:xlink="http://www.w3.org/1999/xlink">
    <!-- Generator: Sketch 48.2 (47327) - http://www.bohemiancoding.com/sketch -->
    <title>GB</title>
    <desc>Created with Sketch.</desc>
    <defs>
        <polygon id="path-1" points="10.5002 0 21 0 21 15 10.5002 15 0.0004 15 0.0004 0 10.5002 0"></polygon>
        <polygon id="path-3" points="21 7.49985 21 0 0 0 0 7.49985 0 14.9997 21 14.9997"></polygon>
        <polygon id="path-5" points="20.9998 -1.97215226e-30 0 -1.97215226e-30 0 14.9997 20.9998 14.9997 20.9998 -3.55271368e-15"></polygon>
        <polygon id="path-7" points="21 7.50015 21 15 0 15 0 7.50015 0 0.0003 21 0.0003 21 7.50015"></polygon>
        <rect id="path-9" x="0" y="0" width="21" height="15" rx="2"></rect>
    </defs>
    <g id="Server-Location-Full-List" stroke="none" stroke-width="1" fill="none" fill-rule="evenodd" transform="translate(-19.000000, -304.000000)">
        <g id="banners" transform="translate(18.000000, 256.000000)">
            <g id="GB" transform="translate(1.000000, 48.000000)">
                <g id="Group-3">
                    <mask id="mask-2" fill="white">
                        <use xlink:href="#path-1"></use>
                    </mask>
                    <g id="Clip-2"></g>
                    <path d="M19.0054,0 L1.9944,0 C0.9024,0 0.0004,0.892 0.0004,1.992 L0.0004,13.008 C0.0004,14.106 0.8934,15 1.9944,15 L19.0054,15 C20.0974,15 21.0004,14.108 21.0004,13.008 L21.0004,1.992 C21.0004,0.894 20.1074,0 19.0054,0" id="Fill-1" fill="#0E5396" mask="url(#mask-2)"></path>
                </g>
                <g id="Group-6">
                    <mask id="mask-4" fill="white">
                        <use xlink:href="#path-3"></use>
                    </mask>
                    <g id="Clip-5"></g>
                    <path d="M21,1.9917 C21,1.6917 20.928,1.4107 20.808,1.1567 C20.807,1.1527 20.806,1.1497 20.805,1.1467 C20.801,1.1387 20.796,1.1317 20.792,1.1237 C20.79,1.1187 20.786,1.1157 20.784,1.1107 C20.716,0.9747 20.634,0.8497 20.538,0.7337 C20.534,0.7297 20.532,0.7247 20.529,0.7207 C20.521,0.7107 20.513,0.6997 20.503,0.6907 C20.502,0.6887 20.501,0.6887 20.5,0.6867 C20.285,0.4437 20.012,0.2567 19.701,0.1407 C19.686,0.1347 19.672,0.1237 19.656,0.1177 L19.649,0.1227 C19.471,0.0617 19.286,0.0167 19.089,0.0087 L13,3.9627 L13,-0.0003 L8,-0.0003 L8,3.9467 L1.932,0.0067 C0.869,0.0397 0,0.9127 0,1.9917 L0,2.6477 L3.623,4.9997 L0,4.9997 L0,9.9997 L3.703,9.9997 L0,12.4047 L0,13.0087 C0,13.3117 0.073,13.5957 0.195,13.8527 L0.195,13.8537 C0.199,13.8617 0.203,13.8677 0.207,13.8747 C0.207,13.8757 0.208,13.8757 0.208,13.8767 C0.279,14.0217 0.367,14.1547 0.47,14.2777 C0.47,14.2777 0.47,14.2787 0.471,14.2787 C0.479,14.2887 0.488,14.2997 0.497,14.3097 C0.497,14.3097 0.497,14.3097 0.497,14.3107 C0.722,14.5677 1.009,14.7637 1.338,14.8797 C1.34,14.8797 1.342,14.8817 1.344,14.8827 L1.345,14.8817 C1.547,14.9507 1.76,14.9977 1.985,14.9987 C3.629,13.8657 5.756,12.4527 8,10.9867 L8,14.9997 L13,14.9997 L13,11.0897 L19.02,14.9987 C20.105,14.9907 21,14.1037 21,13.0087 L21,12.3887 L17.321,9.9997 L21,9.9997 L21,4.9997 L17.295,4.9997 C18.915,3.9687 20.237,3.1317 21,2.6497 L21,1.9917 Z" id="Fill-4" fill="#FFFFFF" mask="url(#mask-4)"></path>
                </g>
                <g id="Group-9">
                    <mask id="mask-6" fill="white">
                        <use xlink:href="#path-5"></use>
                    </mask>
                    <g id="Clip-8"></g>
                    <path d="M19.9268,14.7627 C20.4268,14.4987 20.8038,14.0337 20.9398,13.4707 L14.2348,8.9997 L20.9998,8.9997 L20.9998,5.9997 L14.2418,5.9997 L20.9418,1.5337 C20.8078,0.9697 20.4338,0.5037 19.9328,0.2387 L11.9998,5.5267 L11.9998,-0.0003 L8.9998,-0.0003 L8.9998,5.5107 L1.0828,0.2317 C0.5808,0.4937 0.2018,0.9577 0.0628,1.5207 L6.7818,5.9997 L-0.0002,5.9997 L-0.0002,8.9997 L6.7898,8.9997 L0.0638,13.4837 C0.2028,14.0467 0.5808,14.5107 1.0858,14.7707 L8.9998,9.4947 L8.9998,14.9997 L11.9998,14.9997 L11.9998,9.4787 L19.9268,14.7627 Z" id="Fill-7" fill="#F65260" mask="url(#mask-6)"></path>
                </g>
                <g id="Group-12">
                    <mask id="mask-8" fill="white">
                        <use xlink:href="#path-7"></use>
                    </mask>
                    <g id="Clip-11"></g>
                    <polygon id="Fill-10" fill="#FFFFFF" mask="url(#mask-8)" points="21 4.5503 13.465 4.5503 13.465 0.0003 7.56 0.0003 7.56 4.5503 0 4.5503 0 10.4553 7.56 10.4553 7.56 15.0003 13.465 15.0003 13.465 10.4553 21 10.4553"></polygon>
                </g>
                <polygon id="Fill-13" fill="#F65260" points="21 5.731 12.284 5.731 12.284 0 8.741 0 8.741 5.731 0 5.731 0 9.274 8.741 9.274 8.741 15 12.284 15 12.284 9.274 21 9.274"></polygon>
                <mask id="mask-10" fill="white">
                    <use xlink:href="#path-9"></use>
                </mask>
                <rect stroke-opacity="0.05" stroke="#000000" stroke-width="0.5" x="0.25" y="0.25" width="20.5" height="14.5" rx="2"></rect>
            </g>
        </g>
    </g>
</svg>