<?xml version="1.0" encoding="UTF-8"?>
<svg width="21px" height="15px" viewBox="0 0 21 15" version="1.1" xmlns="http://www.w3.org/2000/svg" xmlns:xlink="http://www.w3.org/1999/xlink">
    <!-- Generator: Sketch 48.2 (47327) - http://www.bohemiancoding.com/sketch -->
    <title>KR</title>
    <desc>Created with Sketch.</desc>
    <defs>
        <rect id="path-1" x="0" y="0" width="21" height="15" rx="2"></rect>
        <path d="M0.0411029357,4.0380633 C0.0140405221,3.86266729 0,3.68297332 0,3.5 C0,1.56700338 1.56700338,0 3.5,0 C5.43299662,0 7,1.56700338 7,3.5 C7,3.64466385 6.99122337,3.78727781 6.97417353,3.92733845 C6.43460345,2.5004042 4.48358349,2.52462477 3.5,4 C2.51360921,5.47958618 1.04073501,4.95242835 0.0411029357,4.0380633 Z" id="path-3"></path>
        <path d="M0.0411029357,4.04219109 C0.0140405221,3.86679508 0,3.68710111 0,3.50412779 C0,1.57113117 1.56700338,0.00412779172 3.5,0.00412779172 C5.43299662,0.00412779172 7,1.57113117 7,3.50412779 C7,3.64879164 6.99122337,3.7914056 6.97417353,3.93146624 C6.43460345,2.50453199 4.48358349,2.52875256 3.5,4.00412779 C2.51360921,5.48371397 1.04073501,4.95655614 0.0411029357,4.04219109 Z" id="path-5"></path>
    </defs>
    <g id="Server-Location-Full-List" stroke="none" stroke-width="1" fill="none" fill-rule="evenodd" transform="translate(-19.000000, -1366.000000)">
        <g id="banners" transform="translate(18.000000, 256.000000)">
            <g id="KR" transform="translate(1.000000, 1110.000000)">
                <mask id="mask-2" fill="white">
                    <use xlink:href="#path-1"></use>
                </mask>
                <g id="Mask">
                    <use fill="#FFFFFF" fill-rule="evenodd" xlink:href="#path-1"></use>
                    <rect stroke-opacity="0.05" stroke="#000000" stroke-width="0.5" x="0.25" y="0.25" width="20.5" height="14.5" rx="2"></rect>
                </g>
                <g id="Oval-9" transform="translate(7.000000, 4.000000)">
                    <mask id="mask-4" fill="white">
                        <use xlink:href="#path-3"></use>
                    </mask>
                    <use id="Combined-Shape" fill="#E01B41" xlink:href="#path-3"></use>
                </g>
                <g id="Oval-9-Copy" transform="translate(10.500000, 8.699951) rotate(-180.000000) translate(-10.500000, -8.699951) translate(7.000000, 6.199951)">
                    <mask id="mask-6" fill="white">
                        <use xlink:href="#path-5"></use>
                    </mask>
                    <use id="Combined-Shape" fill="#0E5396" xlink:href="#path-5"></use>
                </g>
                <path d="M14.2966334,3.57596189 L14.7296461,3.32596189 C14.8492192,3.2569263 15.0021168,3.29789509 15.0711524,3.41746825 L16.3211524,5.58253175 C16.390188,5.70210491 16.3492192,5.85500251 16.2296461,5.92403811 L15.7966334,6.17403811 C15.6770602,6.2430737 15.5241626,6.20210491 15.455127,6.08253175 L14.205127,3.91746825 C14.1360914,3.79789509 14.1770602,3.64499749 14.2966334,3.57596189 Z M15.5956715,2.82596189 L16.0286842,2.57596189 C16.1482573,2.5069263 16.3011549,2.54789509 16.3701905,2.66746825 L17.6201905,4.83253175 C17.6892261,4.95210491 17.6482573,5.10500251 17.5286842,5.17403811 L17.0956715,5.42403811 C16.9760983,5.4930737 16.8232007,5.45210491 16.7541651,5.33253175 L15.5041651,3.16746825 C15.4351295,3.04789509 15.4760983,2.89499749 15.5956715,2.82596189 Z M3.47131582,9.82596189 L3.90432852,9.57596189 C4.02390168,9.5069263 4.17679928,9.54789509 4.24583488,9.66746825 L5.49583488,11.8325318 C5.56487047,11.9521049 5.52390168,12.1050025 5.40432852,12.1740381 L4.97131582,12.4240381 C4.85174267,12.4930737 4.69884507,12.4521049 4.62980947,12.3325318 L3.37980947,10.1674682 C3.31077388,10.0478951 3.35174267,9.89499749 3.47131582,9.82596189 Z M4.77035393,9.07596189 L5.20336663,8.82596189 C5.32293979,8.7569263 5.47583739,8.79789509 5.54487298,8.91746825 L6.79487298,11.0825318 C6.86390857,11.2021049 6.82293979,11.3550025 6.70336663,11.4240381 L6.27035393,11.6740381 C6.15078077,11.7430737 5.99788317,11.7021049 5.92884758,11.5825318 L4.67884758,9.41746825 C4.60981198,9.29789509 4.65078077,9.14499749 4.77035393,9.07596189 Z M15.7966334,8.82596189 L16.2296461,9.07596189 C16.3492192,9.14499749 16.390188,9.29789509 16.3211524,9.41746825 L15.0711524,11.5825318 C15.0021168,11.7021049 14.8492192,11.7430737 14.7296461,11.6740381 L14.2966334,11.4240381 C14.1770602,11.3550025 14.1360914,11.2021049 14.205127,11.0825318 L15.455127,8.91746825 C15.5241626,8.79789509 15.6770602,8.7569263 15.7966334,8.82596189 Z M17.0956715,9.57596189 L17.5286842,9.82596189 C17.6482573,9.89499749 17.6892261,10.0478951 17.6201905,10.1674682 L16.3701905,12.3325318 C16.3011549,12.4521049 16.1482573,12.4930737 16.0286842,12.4240381 L15.5956715,12.1740381 C15.4760983,12.1050025 15.4351295,11.9521049 15.5041651,11.8325318 L16.7541651,9.66746825 C16.8232007,9.54789509 16.9760983,9.5069263 17.0956715,9.57596189 Z M4.97131582,2.57596189 L5.40432852,2.82596189 C5.52390168,2.89499749 5.56487047,3.04789509 5.49583488,3.16746825 L4.24583488,5.33253175 C4.17679928,5.45210491 4.02390168,5.4930737 3.90432852,5.42403811 L3.47131582,5.17403811 C3.35174267,5.10500251 3.31077388,4.95210491 3.37980947,4.83253175 L4.62980947,2.66746825 C4.69884507,2.54789509 4.85174267,2.5069263 4.97131582,2.57596189 Z M6.27035393,3.32596189 L6.70336663,3.57596189 C6.82293979,3.64499749 6.86390857,3.79789509 6.79487298,3.91746825 L5.54487298,6.08253175 C5.47583739,6.20210491 5.32293979,6.2430737 5.20336663,6.17403811 L4.77035393,5.92403811 C4.65078077,5.85500251 4.60981198,5.70210491 4.67884758,5.58253175 L5.92884758,3.41746825 C5.99788317,3.29789509 6.15078077,3.2569263 6.27035393,3.32596189 Z" id="Rectangle-278" fill="#262626" opacity="0.75"></path>
            </g>
        </g>
    </g>
</svg>