<?xml version="1.0" encoding="UTF-8"?>
<svg width="21px" height="15px" viewBox="0 0 21 15" version="1.1" xmlns="http://www.w3.org/2000/svg" xmlns:xlink="http://www.w3.org/1999/xlink">
    <!-- Generator: Sketch 48.2 (47327) - http://www.bohemiancoding.com/sketch -->
    <title>MX</title>
    <desc>Created with Sketch.</desc>
    <defs>
        <rect id="path-1" x="0" y="0" width="21" height="14.6932367" rx="2"></rect>
        <rect id="path-3" x="0" y="0" width="21" height="15" rx="2"></rect>
    </defs>
    <g id="Server-Location-Full-List" stroke="none" stroke-width="1" fill="none" fill-rule="evenodd" transform="translate(-19.000000, -928.000000)">
        <g id="banners" transform="translate(18.000000, 256.000000)">
            <g id="MX" transform="translate(1.000000, 672.000000)">
                <mask id="mask-2" fill="white">
                    <use xlink:href="#path-1"></use>
                </mask>
                <use id="background" fill="#FFFFFF" xlink:href="#path-1"></use>
                <path d="M2.00591905,0 C0.898080551,0 0,0.893397331 0,1.99188419 L0,13.0081158 C0,14.1082031 0.886554837,15 2.00591905,15 L7,15 L7,0 L2.00591905,0 Z" id="left" fill="#196F52"></path>
                <ellipse id="gold" fill="#9B7745" cx="10.5" cy="6.36706924" rx="1.5" ry="1.46932367"></ellipse>
                <path d="M12.9499909,8.81594203 C12.7183558,9.93372527 11.709479,10.7750403 10.5,10.7750403 C9.29052104,10.7750403 8.28164422,9.93372527 8.05000906,8.81594203 L7,8.81594203 L7,7.83639291 L8.05000906,7.83639291 L9.08535285,7.83639291 C9.03007711,7.98958407 9,8.15443516 9,8.32616747 C9,9.13765253 9.67157288,9.79549114 10.5,9.79549114 C11.3284271,9.79549114 12,9.13765253 12,8.32616747 C12,8.15443516 11.9699229,7.98958407 11.9146471,7.83639291 L12.9499909,7.83639291 L14,7.83639291 L14,8.81594203 L12.9499909,8.81594203 Z" id="symbol" fill="#B2B593"></path>
                <path d="M14,0 L14,15 L18.9940809,15 C20.1019194,15 21,14.1066027 21,13.0081158 L21,1.99188419 C21,0.891796927 20.1134452,0 18.9940809,0 L14,0 Z" id="right" fill="#F65260"></path>
                <mask id="mask-4" fill="white">
                    <use xlink:href="#path-3"></use>
                </mask>
                <rect stroke-opacity="0.05" stroke="#000000" stroke-width="0.5" x="0.25" y="0.25" width="20.5" height="14.5" rx="2"></rect>
            </g>
        </g>
    </g>
</svg>