<?xml version="1.0" encoding="UTF-8"?>
<svg width="21px" height="15px" viewBox="0 0 21 15" version="1.1" xmlns="http://www.w3.org/2000/svg" xmlns:xlink="http://www.w3.org/1999/xlink">
    <!-- Generator: Sketch 48.2 (47327) - http://www.bohemiancoding.com/sketch -->
    <title>RO</title>
    <desc>Created with Sketch.</desc>
    <defs>
        <rect id="path-1" x="0" y="0" width="21" height="14.6932367" rx="2"></rect>
        <rect id="path-3" x="0" y="0" width="21" height="15" rx="2"></rect>
    </defs>
    <g id="Server-Location-Full-List" stroke="none" stroke-width="1" fill="none" fill-rule="evenodd" transform="translate(-19.000000, -1515.000000)">
        <g id="banners" transform="translate(18.000000, 256.000000)">
            <g id="RO" transform="translate(1.000000, 1259.000000)">
                <mask id="mask-2" fill="white">
                    <use xlink:href="#path-1"></use>
                </mask>
                <use id="background" fill="#FBCC62" xlink:href="#path-1"></use>
                <mask id="mask-4" fill="white">
                    <use xlink:href="#path-3"></use>
                </mask>
                <rect stroke-opacity="0.05" stroke="#000000" stroke-width="0.5" x="0.25" y="0.25" width="20.5" height="14.5" rx="2"></rect>
                <path d="M2.00591905,0 C0.898080551,0 0,0.897009589 0,1.99688679 L0,12.6963499 C0,13.7992 0.886554837,14.6932367 2.00591905,14.6932367 L7,14.6932367 L7,0 L2.00591905,0 Z" id="left" fill="#0E5396"></path>
                <path d="M14,0 L14,14.6932367 L18.9940809,14.6932367 C20.1019194,14.6932367 21,13.7962271 21,12.6963499 L21,1.99688679 C21,0.894036669 20.1134452,0 18.9940809,0 L14,0 Z" id="right" fill="#F65260"></path>
            </g>
        </g>
    </g>
</svg>