<?xml version="1.0" encoding="UTF-8"?>
<svg width="21px" height="15px" viewBox="0 0 21 15" version="1.1" xmlns="http://www.w3.org/2000/svg" xmlns:xlink="http://www.w3.org/1999/xlink">
    <!-- Generator: Sketch 48.2 (47327) - http://www.bohemiancoding.com/sketch -->
    <title>SG</title>
    <desc>Created with Sketch.</desc>
    <defs>
        <rect id="path-1" x="0" y="0" width="21" height="14.6932367" rx="2"></rect>
    </defs>
    <g id="Server-Location-Full-List" stroke="none" stroke-width="1" fill="none" fill-rule="evenodd" transform="translate(-19.000000, -1566.000000)">
        <g id="banners" transform="translate(18.000000, 256.000000)">
            <g id="SG" transform="translate(1.000000, 1310.000000)">
                <mask id="mask-2" fill="white">
                    <use xlink:href="#path-1"></use>
                </mask>
                <g id="background">
                    <use fill="#FFFFFF" fill-rule="evenodd" xlink:href="#path-1"></use>
                    <rect stroke-opacity="0.1" stroke="#000000" stroke-width="1" x="0.5" y="0.5" width="20" height="13.6932367" rx="2"></rect>
                </g>
                <path d="M0,0 L0,6.00189865 C0,7.10541955 0.90234375,8 1.99456145,8 L19.0054385,8 C20.1070044,8 21,7.11329365 21,6.00189865 L21,0 L0,0 Z" id="bottom" fill="#F65260" transform="translate(10.500000, 4.000000) rotate(-180.000000) translate(-10.500000, -4.000000) "></path>
                <path d="M6.87363497,1.6568923 C6.60168078,1.55545057 6.30731598,1.5 6,1.5 C4.61928813,1.5 3.5,2.61928813 3.5,4 C3.5,5.38071187 4.61928813,6.5 6,6.5 C6.30731598,6.5 6.60168078,6.44454943 6.87363497,6.3431077 C6.36024587,6.75416668 5.70883166,7 5,7 C3.34314575,7 2,5.65685425 2,4 C2,2.34314575 3.34314575,1 5,1 C5.70883166,1 6.36024587,1.24583332 6.87363497,1.6568923 Z M5.5,4 C5.22385763,4 5,3.77614237 5,3.5 C5,3.22385763 5.22385763,3 5.5,3 C5.77614237,3 6,3.22385763 6,3.5 C6,3.77614237 5.77614237,4 5.5,4 Z M6.5,6 C6.22385763,6 6,5.77614237 6,5.5 C6,5.22385763 6.22385763,5 6.5,5 C6.77614237,5 7,5.22385763 7,5.5 C7,5.77614237 6.77614237,6 6.5,6 Z M8.5,6 C8.22385763,6 8,5.77614237 8,5.5 C8,5.22385763 8.22385763,5 8.5,5 C8.77614237,5 9,5.22385763 9,5.5 C9,5.77614237 8.77614237,6 8.5,6 Z M9.5,4 C9.22385763,4 9,3.77614237 9,3.5 C9,3.22385763 9.22385763,3 9.5,3 C9.77614237,3 10,3.22385763 10,3.5 C10,3.77614237 9.77614237,4 9.5,4 Z M7.5,2.5 C7.22385763,2.5 7,2.27614237 7,2 C7,1.72385763 7.22385763,1.5 7.5,1.5 C7.77614237,1.5 8,1.72385763 8,2 C8,2.27614237 7.77614237,2.5 7.5,2.5 Z" id="Oval-12" fill="#FFFFFF"></path>
            </g>
        </g>
    </g>
</svg>