<?xml version="1.0" encoding="UTF-8"?>
<svg width="21px" height="15px" viewBox="0 0 21 15" version="1.1" xmlns="http://www.w3.org/2000/svg" xmlns:xlink="http://www.w3.org/1999/xlink">
    <!-- Generator: Sketch 48.2 (47327) - http://www.bohemiancoding.com/sketch -->
    <title>TR</title>
    <desc>Created with Sketch.</desc>
    <defs>
        <rect id="path-1" x="0" y="0" width="21" height="15" rx="2"></rect>
        <rect id="path-3" x="0" y="0" width="21" height="15" rx="2"></rect>
    </defs>
    <g id="Server-Location-Full-List" stroke="none" stroke-width="1" fill="none" fill-rule="evenodd" transform="translate(-19.000000, -784.000000)">
        <g id="banners" transform="translate(18.000000, 256.000000)">
            <g id="TR" transform="translate(1.000000, 528.000000)">
                <mask id="mask-2" fill="white">
                    <use xlink:href="#path-1"></use>
                </mask>
                <use id="background" fill="#F65260" xlink:href="#path-1"></use>
                <mask id="mask-4" fill="white">
                    <use xlink:href="#path-3"></use>
                </mask>
                <rect stroke-opacity="0.05" stroke="#000000" stroke-width="0.5" x="0.25" y="0.25" width="20.5" height="14.5" rx="2"></rect>
                <path d="M12.052071,4.64004031 C11.228638,3.60461406 9.94371516,2.93864734 8.5,2.93864734 C6.01471863,2.93864734 4,4.91216319 4,7.34661836 C4,9.78107353 6.01471863,11.7545894 8.5,11.7545894 C9.94371516,11.7545894 11.228638,11.0886227 12.052071,10.0531964 C11.4166497,10.5055824 10.6177441,10.7750403 9.75,10.7750403 C7.67893219,10.7750403 6,9.24008349 6,7.34661836 C6,5.45315323 7.67893219,3.91819646 9.75,3.91819646 C10.6177441,3.91819646 11.4166497,4.18765429 12.052071,4.64004031 Z" id="circle" fill="#FFFFFF"></path>
                <path d="M13.9795491,6.37729469 L14,6.37729469 L13.9897746,6.36706924 L14,6.3568438 L13.9795491,6.3568438 L13.5,5.87729469 L13.5,6.36706924 L13.5,5.87729469 L13.0204509,6.3568438 L13,6.3568438 L13.0102254,6.36706924 L13,6.37729469 L13.0204509,6.37729469 L13.5,6.8568438 L13.5,6.36706924 L13.5,6.8568438 L13.9795491,6.37729469 Z" id="Path" stroke="#E6B6B7"></path>
                <path d="M13.9795491,8.33639291 L14,8.33639291 L13.9897746,8.32616747 L14,8.31594203 L13.9795491,8.31594203 L13.5,7.83639291 L13.5,8.32616747 L13.5,7.83639291 L13.0204509,8.31594203 L13,8.31594203 L13.0102254,8.32616747 L13,8.33639291 L13.0204509,8.33639291 L13.5,8.81594203 L13.5,8.32616747 L13.5,8.81594203 L13.9795491,8.33639291 Z" id="Path" stroke="#E6B6B7"></path>
                <path d="M14.9795491,7.3568438 L15,7.3568438 L14.9897746,7.34661836 L15,7.33639291 L14.9795491,7.33639291 L14.5,6.8568438 L14.5,7.34661836 L14.5,6.8568438 L14.0204509,7.33639291 L14,7.33639291 L14.0102254,7.34661836 L14,7.3568438 L14.0204509,7.3568438 L14.5,7.83639291 L14.5,7.34661836 L14.5,7.83639291 L14.9795491,7.3568438 Z" id="Path" stroke="#E6B6B7"></path>
                <path d="M12.9795491,7.3568438 L13,7.3568438 L12.9897746,7.34661836 L13,7.33639291 L12.9795491,7.33639291 L12.5,6.8568438 L12.5,7.34661836 L12.5,6.8568438 L12.0204509,7.33639291 L12,7.33639291 L12.0102254,7.34661836 L12,7.3568438 L12.0204509,7.3568438 L12.5,7.83639291 L12.5,7.34661836 L12.5,7.83639291 L12.9795491,7.3568438 Z" id="Path" stroke="#E6B6B7"></path>
                <rect id="star" fill="#FFFFFF" x="13" y="6.8568438" width="1" height="1"></rect>
            </g>
        </g>
    </g>
</svg>